<?xml version="1.0" standalone="no"?>
<!DOCTYPE svg PUBLIC "-//W3C//DTD SVG 20010904//EN"
 "http://www.w3.org/TR/2001/REC-SVG-20010904/DTD/svg10.dtd">
<svg version="1.0" xmlns="http://www.w3.org/2000/svg"
 width="1000.000000pt" height="1000.000000pt" viewBox="0 0 1000.000000 1000.000000"
 preserveAspectRatio="xMidYMid meet">
<metadata>
Created by potrace 1.14, written by Peter Selinger 2001-2017
</metadata>
<g transform="translate(0.000000,1000.000000) scale(0.100000,-0.100000)"
fill="#000000" stroke="none">
<path d="M4699 9766 c-2 -2 -47 -7 -99 -11 -52 -3 -144 -13 -205 -21 -149 -19
-168 -22 -260 -41 -44 -8 -93 -18 -110 -20 -126 -20 -611 -162 -739 -217 -17
-7 -83 -35 -146 -61 -769 -320 -1480 -879 -1977 -1555 -534 -725 -850 -1571
-920 -2460 -16 -198 -8 -794 12 -895 2 -11 7 -47 10 -80 31 -311 147 -777 280
-1120 294 -759 762 -1414 1383 -1938 56 -48 128 -106 160 -129 31 -23 63 -47
69 -54 25 -24 360 -243 458 -300 608 -348 1303 -565 1990 -621 159 -13 725 -9
858 6 112 12 131 14 202 26 17 3 50 7 75 10 78 9 340 64 480 101 806 210 1548
636 2144 1229 129 128 295 311 335 368 9 12 27 35 41 50 72 81 293 404 378
552 84 147 104 183 161 300 271 554 421 1096 478 1723 10 110 10 671 1 777
-15 163 -20 201 -28 255 -5 30 -12 78 -16 105 -31 252 -157 712 -279 1020 -74
186 -217 485 -280 585 -14 22 -25 42 -25 44 0 7 -98 163 -173 276 -333 499
-794 957 -1302 1297 -66 44 -133 88 -150 97 -16 9 -46 26 -65 38 -56 34 -281
158 -325 178 -22 10 -80 37 -130 60 -443 206 -1029 367 -1475 405 -41 4 -86 9
-100 12 -30 7 -705 15 -711 9z"/>
</g>
</svg>
